<svg xmlns="http://www.w3.org/2000/svg" width="128" height="128" viewBox="0 0 128 128">
  <defs>
    <linearGradient id="g" x1="0" y1="0" x2="1" y2="0">
      <stop offset="0" stop-color="#6ee7ff"/>
      <stop offset="1" stop-color="#a78bfa"/>
    </linearGradient>
  </defs>
  <rect x="10" y="10" width="108" height="108" rx="26" fill="rgba(255,255,255,.04)" stroke="rgba(255,255,255,.10)"/>
  <path d="M64 28c15.5 0 28 12.5 28 28 0 14.6-10.9 26.7-25 27.8V67.6c6-1.2 10.3-6.5 10.3-12.5 0-7.1-5.8-12.9-12.9-12.9S51.5 48 51.5 55.1c0 6 4.3 11.3 10.3 12.5v16.2c-14.1-1.1-25-13.2-25-27.8 0-15.5 12.5-28 27.2-28z" fill="url(#g)"/>
  <path d="M64 66l20 20H72v16H56V86H44l20-20z" fill="url(#g)"/>
</svg>
