<svg xmlns="http://www.w3.org/2000/svg" width="640" height="160" viewBox="0 0 640 160">
  <defs>
    <linearGradient id="g" x1="0" y1="0" x2="1" y2="0">
      <stop offset="0" stop-color="#6ee7ff"/>
      <stop offset="1" stop-color="#a78bfa"/>
    </linearGradient>
    <filter id="s" x="-20%" y="-50%" width="140%" height="200%">
      <feGaussianBlur stdDeviation="4" result="b"/>
      <feColorMatrix in="b" type="matrix" values="1 0 0 0 0  0 1 0 0 0  0 0 1 0 0  0 0 0 .35 0"/>
      <feMerge>
        <feMergeNode/>
        <feMergeNode in="SourceGraphic"/>
      </feMerge>
    </filter>
  </defs>

  <rect x="0" y="0" width="640" height="160" fill="none"/>
  <g transform="translate(22,24)">
    <g filter="url(#s)">
      <rect x="0" y="0" width="112" height="112" rx="26" fill="rgba(255,255,255,.04)" stroke="rgba(255,255,255,.10)"/>
      <path d="M56 22c14.5 0 26 11.5 26 26 0 13.6-10.2 24.7-23.4 25.9v-14.4c5.5-1.1 9.6-6 9.6-11.5 0-6.5-5.3-11.8-11.8-11.8S44.6 41.5 44.6 48c0 5.5 4.1 10.4 9.6 11.5v14.4C40.9 72.7 30.7 61.6 30.7 48c0-14.5 11.8-26 26.3-26z" fill="url(#g)"/>
      <path d="M56 58l18 18h-11v14H49V76H38l18-18z" fill="url(#g)"/>
    </g>
    <g transform="translate(132,10)">
      <text x="0" y="54" font-family="system-ui, -apple-system, Segoe UI, Roboto, sans-serif" font-size="54" font-weight="800" fill="rgba(255,255,255,.92)">DirectDrop</text>
</g>
  </g>
</svg>
